<mxfile host="app.diagrams.net" modified="2021-05-24T08:26:05.410Z" agent="5.0 (X11; Linux x86_64) AppleWebKit/537.36 (KHTML, like Gecko) Chrome/90.0.4430.212 Safari/537.36" etag="hFDFDj0NvrfWKsqWXxEh" version="14.6.13" type="github">
  <diagram id="Lkx0tU46axnpluxMp8mQ" name="Page-1">
    <mxGraphModel dx="1350" dy="774" grid="1" gridSize="10" guides="1" tooltips="1" connect="1" arrows="1" fold="1" page="1" pageScale="1" pageWidth="827" pageHeight="1169" math="0" shadow="0">
      <root>
        <mxCell id="0" />
        <mxCell id="1" parent="0" />
        <mxCell id="2JhJu5usInB86t09204_-35" value="" style="rounded=1;whiteSpace=wrap;html=1;dashed=1;" vertex="1" parent="1">
          <mxGeometry x="70" y="320" width="660" height="280" as="geometry" />
        </mxCell>
        <mxCell id="2JhJu5usInB86t09204_-31" style="edgeStyle=orthogonalEdgeStyle;rounded=0;orthogonalLoop=1;jettySize=auto;html=1;exitX=0;exitY=0.75;exitDx=0;exitDy=0;entryX=0.75;entryY=0;entryDx=0;entryDy=0;" edge="1" parent="1" source="2JhJu5usInB86t09204_-1" target="2JhJu5usInB86t09204_-2">
          <mxGeometry relative="1" as="geometry" />
        </mxCell>
        <mxCell id="2JhJu5usInB86t09204_-32" style="edgeStyle=orthogonalEdgeStyle;rounded=0;orthogonalLoop=1;jettySize=auto;html=1;exitX=1;exitY=0.5;exitDx=0;exitDy=0;" edge="1" parent="1" source="2JhJu5usInB86t09204_-1" target="2JhJu5usInB86t09204_-3">
          <mxGeometry relative="1" as="geometry" />
        </mxCell>
        <mxCell id="2JhJu5usInB86t09204_-1" value="UI" style="rounded=1;whiteSpace=wrap;html=1;" vertex="1" parent="1">
          <mxGeometry x="320" y="160" width="80" height="140" as="geometry" />
        </mxCell>
        <mxCell id="2JhJu5usInB86t09204_-30" style="edgeStyle=orthogonalEdgeStyle;rounded=0;orthogonalLoop=1;jettySize=auto;html=1;exitX=0.25;exitY=0;exitDx=0;exitDy=0;entryX=0;entryY=0.25;entryDx=0;entryDy=0;" edge="1" parent="1" source="2JhJu5usInB86t09204_-2" target="2JhJu5usInB86t09204_-1">
          <mxGeometry relative="1" as="geometry" />
        </mxCell>
        <mxCell id="2JhJu5usInB86t09204_-2" value="Query Resolver" style="rounded=1;whiteSpace=wrap;html=1;" vertex="1" parent="1">
          <mxGeometry x="110" y="360" width="120" height="60" as="geometry" />
        </mxCell>
        <mxCell id="2JhJu5usInB86t09204_-3" value="Command Handler" style="rounded=1;whiteSpace=wrap;html=1;" vertex="1" parent="1">
          <mxGeometry x="500" y="360" width="120" height="60" as="geometry" />
        </mxCell>
        <mxCell id="2JhJu5usInB86t09204_-45" style="edgeStyle=orthogonalEdgeStyle;rounded=0;orthogonalLoop=1;jettySize=auto;html=1;exitX=0;exitY=0.5;exitDx=0;exitDy=0;" edge="1" parent="1" source="2JhJu5usInB86t09204_-4" target="2JhJu5usInB86t09204_-44">
          <mxGeometry relative="1" as="geometry" />
        </mxCell>
        <mxCell id="2JhJu5usInB86t09204_-4" value="" style="rounded=1;whiteSpace=wrap;html=1;" vertex="1" parent="1">
          <mxGeometry x="440" y="490" width="240" height="100" as="geometry" />
        </mxCell>
        <mxCell id="2JhJu5usInB86t09204_-14" value="" style="group" vertex="1" connectable="0" parent="1">
          <mxGeometry x="460" y="510" width="200" height="40" as="geometry" />
        </mxCell>
        <mxCell id="2JhJu5usInB86t09204_-5" value="" style="rounded=0;whiteSpace=wrap;html=1;" vertex="1" parent="2JhJu5usInB86t09204_-14">
          <mxGeometry width="40" height="40" as="geometry" />
        </mxCell>
        <mxCell id="2JhJu5usInB86t09204_-6" value="" style="rounded=0;whiteSpace=wrap;html=1;" vertex="1" parent="2JhJu5usInB86t09204_-14">
          <mxGeometry x="40" width="40" height="40" as="geometry" />
        </mxCell>
        <mxCell id="2JhJu5usInB86t09204_-7" value="" style="rounded=0;whiteSpace=wrap;html=1;" vertex="1" parent="2JhJu5usInB86t09204_-14">
          <mxGeometry x="80" width="40" height="40" as="geometry" />
        </mxCell>
        <mxCell id="2JhJu5usInB86t09204_-8" value="" style="rounded=0;whiteSpace=wrap;html=1;" vertex="1" parent="2JhJu5usInB86t09204_-14">
          <mxGeometry x="120" width="40" height="40" as="geometry" />
        </mxCell>
        <mxCell id="2JhJu5usInB86t09204_-9" value="" style="rounded=0;whiteSpace=wrap;html=1;" vertex="1" parent="2JhJu5usInB86t09204_-14">
          <mxGeometry x="160" width="40" height="40" as="geometry" />
        </mxCell>
        <mxCell id="2JhJu5usInB86t09204_-37" style="edgeStyle=orthogonalEdgeStyle;rounded=0;orthogonalLoop=1;jettySize=auto;html=1;exitX=0.5;exitY=0;exitDx=0;exitDy=0;exitPerimeter=0;entryX=0.5;entryY=1;entryDx=0;entryDy=0;" edge="1" parent="1" source="2JhJu5usInB86t09204_-16" target="2JhJu5usInB86t09204_-2">
          <mxGeometry relative="1" as="geometry" />
        </mxCell>
        <mxCell id="2JhJu5usInB86t09204_-16" value="" style="shape=cylinder3;whiteSpace=wrap;html=1;boundedLbl=1;backgroundOutline=1;size=15;" vertex="1" parent="1">
          <mxGeometry x="140" y="670" width="60" height="80" as="geometry" />
        </mxCell>
        <mxCell id="2JhJu5usInB86t09204_-17" value="Platform Services" style="ellipse;shape=cloud;whiteSpace=wrap;html=1;" vertex="1" parent="1">
          <mxGeometry x="215" y="660" width="170" height="100" as="geometry" />
        </mxCell>
        <mxCell id="2JhJu5usInB86t09204_-27" value="" style="endArrow=classic;html=1;exitX=0.5;exitY=1;exitDx=0;exitDy=0;entryX=0.5;entryY=0;entryDx=0;entryDy=0;" edge="1" parent="1" source="2JhJu5usInB86t09204_-3" target="2JhJu5usInB86t09204_-4">
          <mxGeometry width="50" height="50" relative="1" as="geometry">
            <mxPoint x="390" y="470" as="sourcePoint" />
            <mxPoint x="440" y="420" as="targetPoint" />
          </mxGeometry>
        </mxCell>
        <mxCell id="2JhJu5usInB86t09204_-28" value="Db" style="text;html=1;strokeColor=none;fillColor=none;align=center;verticalAlign=middle;whiteSpace=wrap;rounded=0;" vertex="1" parent="1">
          <mxGeometry x="150" y="710" width="40" height="20" as="geometry" />
        </mxCell>
        <mxCell id="2JhJu5usInB86t09204_-29" value="Event Store" style="text;html=1;strokeColor=none;fillColor=none;align=center;verticalAlign=middle;whiteSpace=wrap;rounded=0;" vertex="1" parent="1">
          <mxGeometry x="540" y="560" width="40" height="20" as="geometry" />
        </mxCell>
        <mxCell id="2JhJu5usInB86t09204_-38" value="Write Queries (commands)" style="text;html=1;strokeColor=none;fillColor=none;align=center;verticalAlign=middle;whiteSpace=wrap;rounded=0;dashed=1;" vertex="1" parent="1">
          <mxGeometry x="440" y="200" width="80" height="20" as="geometry" />
        </mxCell>
        <mxCell id="2JhJu5usInB86t09204_-39" value="Read Queries" style="text;html=1;strokeColor=none;fillColor=none;align=center;verticalAlign=middle;whiteSpace=wrap;rounded=0;dashed=1;" vertex="1" parent="1">
          <mxGeometry x="200" y="170" width="80" height="20" as="geometry" />
        </mxCell>
        <mxCell id="2JhJu5usInB86t09204_-40" value="Data" style="text;html=1;strokeColor=none;fillColor=none;align=center;verticalAlign=middle;whiteSpace=wrap;rounded=0;dashed=1;" vertex="1" parent="1">
          <mxGeometry x="220" y="240" width="40" height="20" as="geometry" />
        </mxCell>
        <mxCell id="2JhJu5usInB86t09204_-43" value="Shared Library" style="text;html=1;strokeColor=none;fillColor=none;align=center;verticalAlign=middle;whiteSpace=wrap;rounded=0;dashed=1;" vertex="1" parent="1">
          <mxGeometry x="620" y="330" width="100" height="20" as="geometry" />
        </mxCell>
        <mxCell id="2JhJu5usInB86t09204_-46" style="edgeStyle=orthogonalEdgeStyle;rounded=0;orthogonalLoop=1;jettySize=auto;html=1;exitX=0.5;exitY=1;exitDx=0;exitDy=0;entryX=0.5;entryY=0.1;entryDx=0;entryDy=0;entryPerimeter=0;" edge="1" parent="1" source="2JhJu5usInB86t09204_-44" target="2JhJu5usInB86t09204_-17">
          <mxGeometry relative="1" as="geometry" />
        </mxCell>
        <mxCell id="2JhJu5usInB86t09204_-44" value="Event Handler" style="rounded=1;whiteSpace=wrap;html=1;" vertex="1" parent="1">
          <mxGeometry x="240" y="510" width="120" height="60" as="geometry" />
        </mxCell>
        <mxCell id="2JhJu5usInB86t09204_-47" value="" style="endArrow=classic;html=1;entryX=0.855;entryY=0;entryDx=0;entryDy=4.35;entryPerimeter=0;rounded=0;" edge="1" parent="1" target="2JhJu5usInB86t09204_-16">
          <mxGeometry width="50" height="50" relative="1" as="geometry">
            <mxPoint x="300" y="630" as="sourcePoint" />
            <mxPoint x="440" y="500" as="targetPoint" />
            <Array as="points">
              <mxPoint x="191" y="630" />
            </Array>
          </mxGeometry>
        </mxCell>
      </root>
    </mxGraphModel>
  </diagram>
</mxfile>
